<svg id="Livello_1" data-name="Livello 1" xmlns="http://www.w3.org/2000/svg" viewBox="0 0 73 63.5"><defs><style>.cls-1{fill:#fff;stroke:#1d1d1b;stroke-miterlimit:10;}</style></defs><path class="cls-1" d="M359.92,313.68v4.65a3.24,3.24,0,0,0-3.46-3H309a3,3,0,0,1-3-3V301.73h9.14c2.19,0,4,1,4,2.17v2.7a3.33,3.33,0,0,0,1,2.36,4.36,4.36,0,0,0,3,1.18h32.64A3.84,3.84,0,0,1,359.92,313.68Z" transform="translate(-287.5 -297)"/><path class="cls-1" d="M360,318.33V357a3,3,0,0,1-3,3H291a3,3,0,0,1-3-3V300.47a3,3,0,0,1,3-3h12a3,3,0,0,1,3,3v11.91a3,3,0,0,0,3,3h47.46a3.24,3.24,0,0,1,3.46,3v-.67A3,3,0,0,1,360,318.33Z" transform="translate(-287.5 -297)"/><path class="cls-1" d="M359.92,317.66v.67a3.24,3.24,0,0,0-3.46-3H357A3,3,0,0,1,359.92,317.66Z" transform="translate(-287.5 -297)"/></svg>