<svg id="Livello_1" data-name="Livello 1" xmlns="http://www.w3.org/2000/svg" viewBox="0 0 152.53 135.56"><defs><style>.cls-1{fill:#662483;stroke:#1d1d1b;stroke-miterlimit:10;}</style></defs><path class="cls-1" d="M214.19,504a2.22,2.22,0,0,1-.37,0h-4.64a2.11,2.11,0,0,1-2.18-2v-.17a2.19,2.19,0,0,0,2.18,2.18Z" transform="translate(-206.5 -368.97)"/><path class="cls-1" d="M249.49,470.51,225,495H348.82a2.19,2.19,0,0,1,2.18,2.18v4.64a2.19,2.19,0,0,1-2.18,2.18H209.18a2.19,2.19,0,0,1-2.18-2.18V371.51a2.11,2.11,0,0,1,2.18-2h4.64a2.11,2.11,0,0,1,2.18,2V486l33.49-33.49a3.54,3.54,0,0,1,5,0l4,4a3.54,3.54,0,0,0,5,0l31-31a3.54,3.54,0,0,1,5,0l13,13a3.54,3.54,0,0,0,5,0l31-31a3.54,3.54,0,0,1,5,0l4,4a3.54,3.54,0,0,1,0,5l-40,40a3.54,3.54,0,0,1-5,0l-13-13a3.54,3.54,0,0,0-5,0l-31,31a3.54,3.54,0,0,1-5,0l-4-4A3.54,3.54,0,0,0,249.49,470.51Z" transform="translate(-206.5 -368.97)"/></svg>