<svg id="Livello_1" data-name="Livello 1" xmlns="http://www.w3.org/2000/svg" viewBox="0 0 656.91 665.91"><defs><style>.cls-1{fill:#1d1d1b;stroke:#1d1d1b;}.cls-1,.cls-2{stroke-miterlimit:10;}.cls-2{fill:#ffed00;stroke:#ffed00;}.cls-3{fill:#303030;}</style></defs><rect class="cls-1" x="0.5" y="0.5" width="655.91" height="664.91" rx="20.54"/><rect class="cls-2" x="71.94" y="80.94" width="504" height="504" rx="15.2"/><path class="cls-3" d="M512.65,738.93c-4.7-1.94-9.77-2.84-13.91-6.27A27.91,27.91,0,0,1,490,704.22c3.1-10.68,10-17.53,21.11-19.34,14-2.28,25.12,4.18,30,17.46.84,2.28,1.9,3.08,4.27,3.07q35.94-.1,71.86,0c2.21,0,3.26-.72,3.86-2.83,2.44-8.64,8-14.41,16.24-17.54,1.73-.66,2.5-1.51,2.46-3.33-.33-16.12-.6-32.25-1-48.38,0-2.29-1.15-3.81-3.62-4.69-17.27-6.11-23.55-29.15-9.76-44.34,7-7.71,16.65-10.07,27-7.08s16.52,10,18.71,20.66c2.58,12.54-4,25.44-14.19,29.78a3.58,3.58,0,0,0-2.41,3.93q.87,25.54,1.63,51.09c.06,2.15,1.48,2.79,3,3.63,11.39,6.32,16.58,18.13,13.66,30.92a26.1,26.1,0,0,1-25.25,20.4c-10.06.2-18.56-3.76-23.82-12.89-1.55-2.68-3.18-3.6-6.13-3.59q-36.17.15-72.32,0c-2.7,0-4.49.46-5.82,3.2-4,8.27-10.8,12.71-19.83,13.66a1.49,1.49,0,0,0-1.44.9Z" transform="translate(-126.06 -171.06)"/><path class="cls-3" d="M684.92,436.88c-1.76,3.83-2.21,8.14-4.58,11.8-7,10.74-20.59,15.08-33.12,9.82-3.68-1.54-5.85-.77-8.47,1.72a138.39,138.39,0,0,1-14.29,12.38c-3.17,2.26-3.68,4.52-3.11,8,2.32,14.28-5.57,26.8-19,30.51-11.58,3.18-24.48-1.88-30.25-11.88-6-10.45-4.51-25,3.55-33.63.11-.11.2-.27.34-.32,7.3-2.9,6.37-8.23,4.07-14a6.93,6.93,0,0,1-.26-1.84c-.86-8.64-3.74-13.91-13.78-16.13-13.08-2.89-17.73-15.94-17-26.52.92-13.41,9.88-23.08,21.88-24.93,12.48-1.93,23.34,3.23,28.5,13.53,6,11.93,3.88,24-5.94,33.74a3.16,3.16,0,0,0-1.08,3.57c1.86,7.45,3.44,15,5.11,22.47a3.58,3.58,0,0,0,2.93,3.13c1.49.29,3.25.36,4.37,1.22,5,3.82,8.44,1.2,12.1-2.24,4.26-4,8.8-7.69,13.2-11.53,1.72-1.49,2.34-2.89,1.71-5.57-3.75-15.93,6.31-31.22,22.47-33.46,14.4-2,28.11,7.95,29.79,22.64.08.76,0,1.56.91,1.91Z" transform="translate(-126.06 -171.06)"/><path class="cls-3" d="M246.4,270.93c4.49,1.61,9.33,2.18,13.36,5.14a25.44,25.44,0,0,1,10.49,16.76c.52,3.09,1.86,3.94,4.76,4.34,11.47,1.59,22.92,3.42,34.35,5.33,3,.5,3.89-.88,4.89-3.37,4.7-11.73,15-16.93,25.62-16.67,12.07.3,20.95,7.42,24.52,18.72,4.31,13.59-1.81,27.87-14.22,33.18-13.64,5.84-28.17,1-34.85-12-1.4-2.71-3.48-3.33-5.8-3.69-12.81-2-25.64-3.84-38.45-5.77-2.55-.38-4.32.61-5.94,2.61-7.35,9.05-17.06,11.86-27.92,9.14-11.07-2.78-17.77-10.29-19.48-22,0-.37-.53-.66-.81-1v-6.53c.66-.25.79-.8.9-1.44,1.86-10.93,8.2-17.8,18.48-21.36,1.83-.63,4,.42,5.5-1.44Z" transform="translate(-126.06 -171.06)"/><path class="cls-3" d="M318.41,710.89c0-15.69,11.91-28.52,26.41-29.5A5.29,5.29,0,0,0,350,678c6.77-13.65,13.13-27.56,20.79-40.69,6.35-10.89,11.64-22.28,17.56-33.36a5.69,5.69,0,0,0-.2-6.56c-7.05-11.43-5.15-27.77,6.73-36.32,1.68-1.21,2.07-2.38,1.25-4.3q-7.8-18.4-15.46-36.9c-.85-2-2.4-2-4.09-2.18-11.75-1.62-20.15-7.44-23.66-19.4a27.52,27.52,0,0,1,14-32.37c11.67-5.69,26.8-1.94,33.75,9,2.3,3.62,4.21,4,8.08,3.19,14.92-3.08,29.93-5.75,44.95-8.32,2.82-.48,3.65-1.47,4.07-4.31,2.28-15.13,9.32-22.51,23.36-25.05,13.57-2.45,27.48,7.5,29.68,21.22,2.8,17.44-7.2,31.07-24.56,32.68-8.08.74-15.36-2.23-21.21-8.06a3.53,3.53,0,0,0-3.84-1.23c-17.82,3.35-35.67,6.51-53.53,9.64-1.57.28-2.44.79-2.9,2.39-1.56,5.42-3.92,10.37-8.3,14.11-1.49,1.27-.91,2.72-.27,4.22Q404,534,411.84,552.64a5.74,5.74,0,0,0,4.7,3.7c13.85,2.93,21.11,13.47,21.14,26.94a25.81,25.81,0,0,1-22.11,26.1c-2.88.46-5.67,1-8.6.1-2-.63-3.26.31-4.33,2.31-7.52,14.1-14.61,28.39-21.08,43-4.34,9.84-9.59,19.28-14.56,28.83-1.63,3.12-1.67,5.13.76,8.46a29.27,29.27,0,0,1-2,36.71c-8.34,9.21-24.91,10.16-35.44,2.93C322.43,726.3,319.19,718.69,318.41,710.89Z" transform="translate(-126.06 -171.06)"/><path class="cls-3" d="M484.77,393.75c-14.16-.73-25.7-8.5-27-25.86a26.21,26.21,0,0,1,22.5-28.12,26.91,26.91,0,0,1,15.58,2.11c2.6,1.17,4.16.7,6-1.25,4.77-5.06,9.65-10,14.59-14.89,1.65-1.62,1.83-3,1.12-5.32-5.69-18.47,3.45-33.71,22.21-36.79,9.08-1.49,21.85,3.1,26.72,14.56,1.63,3.85,3.81,4.58,7.61,4.81,12.4.77,24.82.17,37.21.79,3.64.18,5.81-.66,7.66-4.09,5.41-10,14.47-14.26,25.24-13.36,11.56,1,19.88,7.09,23.44,18.89,4.17,13.84-2.58,28.52-15.54,33.4-14.35,5.4-29.3-.89-34.81-14.94-1.13-2.89-2.62-3.6-5.41-3.64q-20.21-.24-40.43-.84c-2.33-.07-3.62.56-4.5,2.83-4.77,12.34-20.24,18.82-32.89,14.14-2.65-1-4.42-.63-6.41,1.52-5.14,5.55-10.52,10.87-15.86,16.22a4.89,4.89,0,0,0-1.43,5.3C514.65,377.53,502.71,393.49,484.77,393.75Z" transform="translate(-126.06 -171.06)"/><path class="cls-3" d="M312.43,413.32c-12,0-21.65-6.38-25.64-16.24-4.92-12.16-2-22.94,5.57-30.43,8.27-8.15,19.21-10.57,31.36-4.71,2.78,1.35,4.42.93,6.88-.77q32.23-22.28,64.76-44.1c2.59-1.75,3.41-3.59,2.94-6.53-1.76-10.88,3-21,12.64-27.08,8.49-5.37,21.2-4.9,29.43,1.08,11.38,8.28,14.55,24.46,7.21,36.81-7,11.75-22.61,16.13-35.38,9.52-3.4-1.76-5.61-1.78-8.87.49Q372.36,353,341,374c-3.23,2.16-4,4.17-3.37,7.75,2.34,14.2-5.15,26.32-18.6,30.3A56.63,56.63,0,0,1,312.43,413.32Z" transform="translate(-126.06 -171.06)"/><path class="cls-3" d="M257.19,725.63c-10.29-.88-19.12-5.11-23.69-15.88-4.77-11.26-2.49-21.54,5.08-30.61,2.2-2.64,5.52-4.35,8.77-5.8,1.34-.6,2.68-1,2.59-3.2-1-25-.53-50-.71-74.94,0-3-.62-4.6-3.57-6-11.78-5.38-15.57-17.94-14.45-26.63,1.76-13.76,9.88-22.22,22.15-24.15,14.23-2.23,26,5,30.15,18.58,4.09,13.36-1.76,26.85-14.46,32.68-2.92,1.34-3.6,3.16-3.58,6.11q.24,36.33.21,72.68c0,3.1,1.35,4.16,3.87,5.31,11.63,5.36,17.46,18.24,14.46,31.31C281.25,717.12,270.29,725.7,257.19,725.63Z" transform="translate(-126.06 -171.06)"/><path class="cls-3" d="M253.32,336.43c11.38-.09,22.36,8.48,25.15,20.45,3,12.88-2.57,25.62-14,31.1-2.71,1.3-3.47,2.77-3.36,5.59.62,16.55,1.19,33.11,1.56,49.66.07,3.12,1.08,4.65,3.91,5.87C277.9,454,282.32,464.69,282,474.74c-.42,12.45-7.6,21.39-19,24.92-11.64,3.6-24.87-1.14-30.66-11.48-6.8-12.14-4.77-23.93,3.67-33.86a20.66,20.66,0,0,1,7.59-5.11c2.5-1.09,2.91-2.57,2.9-5-.06-16.59-1.45-33.16-1-49.76a5.69,5.69,0,0,0-4-6c-15.66-6-22.14-28.43-8.51-43.83C237.82,339.12,244.77,336.66,253.32,336.43Z" transform="translate(-126.06 -171.06)"/><path class="cls-1" d="M630,455.8V624.2a5.8,5.8,0,0,1-5.8,5.8H599.8a5.8,5.8,0,0,0-5.8,5.8v24.4a5.8,5.8,0,0,1-5.8,5.8H563.8a5.8,5.8,0,0,0-5.8,5.8v24.4a5.8,5.8,0,0,1-5.8,5.8H347.8a5.8,5.8,0,0,1-5.8-5.8V671.8a5.8,5.8,0,0,0-5.8-5.8H311.8a5.8,5.8,0,0,1-5.8-5.8V635.8a5.8,5.8,0,0,0-5.8-5.8H275.8a5.8,5.8,0,0,1-5.8-5.8V455.8a5.8,5.8,0,0,1,5.8-5.8h24.4a5.8,5.8,0,0,0,5.8-5.8V383.8a5.8,5.8,0,0,1,5.8-5.8h24.4a5.8,5.8,0,0,0,5.8-5.8V347.8a5.8,5.8,0,0,1,5.8-5.8h24.4a5.8,5.8,0,0,0,5.8-5.8V311.8a5.8,5.8,0,0,1,5.8-5.8H516.2a5.8,5.8,0,0,1,5.8,5.8v24.4a5.8,5.8,0,0,0,5.8,5.8h24.4a5.8,5.8,0,0,1,5.8,5.8v24.4a5.8,5.8,0,0,0,5.8,5.8h24.4a5.8,5.8,0,0,1,5.8,5.8v60.4a5.8,5.8,0,0,0,5.8,5.8h24.4A5.8,5.8,0,0,1,630,455.8Z" transform="translate(-126.06 -171.06)"/></svg>