<svg id="Livello_1" data-name="Livello 1" xmlns="http://www.w3.org/2000/svg" viewBox="0 0 576.57 576.58"><defs><style>.cls-1{fill:#1d1d1b;stroke:#1d1d1b;}.cls-1,.cls-2{stroke-miterlimit:10;}.cls-2{fill:#ffed00;stroke:#ffed00;}.cls-3{fill:#303030;}.cls-4{fill:#fff;}</style></defs><path class="cls-1" d="M738,161.73v540a17.9,17.9,0,0,1-18,17.77H180.49a17.9,17.9,0,0,1-18-17.77v-540a17.9,17.9,0,0,1,18-17.77H720A17.9,17.9,0,0,1,738,161.73Z" transform="translate(-161.96 -143.46)"/><rect class="cls-2" x="99.04" y="64.43" width="377.1" height="368.11" rx="15.2"/><path class="cls-3" d="M497.92,569c-3.62-1.46-7.53-2.14-10.74-4.72a20.74,20.74,0,0,1-6.76-21.44c2.39-8,7.74-13.22,16.3-14.58,10.84-1.72,19.4,3.15,23.17,13.16a3,3,0,0,0,3.3,2.32q27.73-.09,55.48,0c1.71,0,2.52-.54,3-2.13,1.89-6.51,6.2-10.86,12.55-13.23,1.34-.49,1.93-1.13,1.9-2.5-.26-12.15-.47-24.31-.76-36.47a3.56,3.56,0,0,0-2.8-3.53c-13.33-4.61-18.18-22-7.53-33.43,5.41-5.81,12.86-7.59,20.83-5.33s12.75,7.54,14.44,15.57c2,9.45-3.12,19.17-10.95,22.44a2.69,2.69,0,0,0-1.86,3q.66,19.26,1.25,38.51c0,1.62,1.15,2.11,2.31,2.74,8.79,4.76,12.81,13.66,10.55,23.3a20.05,20.05,0,0,1-19.5,15.38c-7.77.15-14.33-2.83-18.4-9.72a4.72,4.72,0,0,0-4.73-2.7q-27.91.12-55.84,0c-2.08,0-3.47.35-4.5,2.42-3.09,6.23-8.33,9.58-15.31,10.29-.5.06-.91.18-1.11.68Z" transform="translate(-161.96 -143.46)"/><path class="cls-3" d="M631,341.35c-1.36,2.89-1.7,6.14-3.53,8.89-5.38,8.1-15.9,11.38-25.58,7.41-2.84-1.17-4.51-.58-6.54,1.3a106.18,106.18,0,0,1-11,9.32c-2.45,1.71-2.84,3.42-2.41,6,1.79,10.77-4.3,20.2-14.7,23-8.94,2.4-18.9-1.42-23.36-8.95-4.66-7.88-3.48-18.82,2.75-25.35.08-.09.15-.21.25-.25,5.64-2.18,4.92-6.2,3.15-10.55a4.85,4.85,0,0,1-.2-1.38c-.66-6.52-2.89-10.49-10.64-12.16-10.1-2.18-13.69-12-13.13-20,.71-10.11,7.62-17.4,16.89-18.8,9.64-1.45,18,2.44,22,10.2,4.61,9,3,18.11-4.59,25.44a2.34,2.34,0,0,0-.83,2.69c1.43,5.61,2.65,11.29,3.94,16.94a2.75,2.75,0,0,0,2.26,2.36c1.15.22,2.51.27,3.38.91,3.83,2.88,6.52.91,9.34-1.68,3.29-3,6.8-5.8,10.2-8.69a3.64,3.64,0,0,0,1.32-4.21,20.34,20.34,0,0,1,17.35-25.22c11.12-1.5,21.7,6,23,17.07.06.57,0,1.18.7,1.44Z" transform="translate(-161.96 -143.46)"/><path class="cls-3" d="M292.33,216.26c3.47,1.21,7.2,1.64,10.32,3.87a19.15,19.15,0,0,1,8.1,12.64c.4,2.33,1.44,3,3.67,3.27,8.86,1.19,17.7,2.58,26.52,4,2.3.37,3-.67,3.78-2.54,3.63-8.85,11.55-12.76,19.79-12.57,9.32.23,16.17,5.59,18.94,14.11,3.32,10.25-1.41,21-11,25-10.53,4.4-21.75.74-26.91-9-1.08-2-2.69-2.51-4.48-2.79-9.89-1.51-19.79-2.89-29.69-4.35a4.7,4.7,0,0,0-4.59,2c-5.67,6.82-13.17,8.94-21.56,6.89-8.54-2.09-13.72-7.76-15-16.56,0-.28-.41-.5-.62-.75v-4.92c.51-.19.61-.6.69-1.08,1.43-8.24,6.33-13.42,14.27-16.11,1.41-.47,3.12.32,4.25-1.08Z" transform="translate(-161.96 -143.46)"/><path class="cls-3" d="M347.94,547.9a22.23,22.23,0,0,1,20.39-22.24,4.09,4.09,0,0,0,4-2.59c5.23-10.28,10.14-20.77,16.05-30.67,4.91-8.21,9-16.79,13.56-25.14a4.23,4.23,0,0,0-.15-4.95c-5.44-8.61-4-20.93,5.19-27.38a2.28,2.28,0,0,0,1-3.24q-6-13.87-11.94-27.81c-.65-1.54-1.85-1.47-3.16-1.65-9.07-1.21-15.56-5.6-18.27-14.62a20.57,20.57,0,0,1,10.82-24.4c9-4.29,20.7-1.46,26.07,6.79,1.77,2.72,3.24,3,6.23,2.4,11.53-2.32,23.12-4.33,34.72-6.27,2.17-.37,2.81-1.11,3.14-3.25,1.76-11.41,7.19-17,18-18.88,10.47-1.85,21.22,5.65,22.92,16,2.16,13.15-5.56,23.42-19,24.63a20.39,20.39,0,0,1-16.37-6.07,2.76,2.76,0,0,0-3-.93c-13.76,2.53-27.55,4.91-41.34,7.27a2.35,2.35,0,0,0-2.24,1.8c-1.2,4.08-3,7.82-6.41,10.64-1.15.95-.7,2.05-.21,3.18q6.07,14,12.1,28.1a4.41,4.41,0,0,0,3.63,2.79c10.7,2.2,16.3,10.15,16.32,20.3s-7.16,18.14-17.07,19.68c-2.22.35-4.37.78-6.63.07-1.53-.47-2.53.24-3.35,1.75-5.81,10.62-11.29,21.39-16.28,32.43-3.35,7.42-7.41,14.53-11.24,21.73-1.26,2.36-1.29,3.87.59,6.38a21.66,21.66,0,0,1-1.53,27.67c-6.44,7-19.23,7.66-27.36,2.21A20.58,20.58,0,0,1,347.94,547.9Z" transform="translate(-161.96 -143.46)"/><path class="cls-3" d="M476.4,308.84c-10.93-.55-19.85-6.41-20.84-19.5-.74-9.69,5.72-19.39,17.38-21.19a21.24,21.24,0,0,1,12,1.59,3.53,3.53,0,0,0,4.63-.94c3.68-3.82,7.45-7.54,11.26-11.22,1.27-1.23,1.41-2.29.87-4-4.4-13.92,2.66-25.41,17.15-27.73,7-1.13,16.87,2.34,20.63,11,1.26,2.9,3,3.45,5.88,3.62,9.58.58,19.17.13,28.73.6,2.81.14,4.49-.5,5.92-3.09,4.17-7.53,11.17-10.74,19.49-10.06,8.93.72,15.35,5.34,18.1,14.23,3.22,10.44-2,21.5-12,25.18-11.08,4.07-22.63-.67-26.88-11.26-.88-2.18-2-2.72-4.18-2.74q-15.6-.19-31.22-.64c-1.8-.05-2.8.42-3.48,2.13-3.68,9.3-15.62,14.19-25.39,10.67a4,4,0,0,0-5,1.14c-4,4.18-8.12,8.19-12.25,12.23a3.6,3.6,0,0,0-1.1,4C499.47,296.61,490.25,308.64,476.4,308.84Z" transform="translate(-161.96 -143.46)"/><path class="cls-3" d="M343.32,323.59c-9.27,0-16.72-4.81-19.8-12.24-3.8-9.17-1.58-17.29,4.3-22.94,6.39-6.14,14.83-8,24.21-3.55,2.15,1,3.42.7,5.32-.58q24.88-16.78,50-33.24c2-1.32,2.63-2.71,2.27-4.92-1.36-8.21,2.31-15.82,9.75-20.41,6.56-4.05,16.38-3.7,22.73.81a20.82,20.82,0,0,1,5.57,27.74c-5.4,8.86-17.46,12.16-27.32,7.18-2.62-1.33-4.33-1.34-6.85.37Q389.59,278.12,365.34,294c-2.49,1.62-3,3.14-2.6,5.84,1.81,10.7-4,19.84-14.36,22.83A43.17,43.17,0,0,1,343.32,323.59Z" transform="translate(-161.96 -143.46)"/><path class="cls-3" d="M300.66,559c-7.94-.67-14.76-3.86-18.29-12-3.69-8.48-1.93-16.23,3.92-23.07,1.7-2,4.26-3.27,6.77-4.37,1-.45,2.07-.74,2-2.41-.79-18.82-.4-37.66-.55-56.49,0-2.22-.47-3.47-2.75-4.48-9.1-4.06-12-13.53-11.16-20.08,1.36-10.37,7.63-16.75,17.11-18.2,11-1.68,20.07,3.79,23.28,14a19.88,19.88,0,0,1-11.17,24.63c-2.26,1-2.78,2.38-2.77,4.6q.19,27.39.17,54.79c0,2.34,1,3.13,3,4,9,4,13.49,13.75,11.17,23.6C319.24,552.59,310.78,559.06,300.66,559Z" transform="translate(-161.96 -143.46)"/><path class="cls-3" d="M297.67,265.63a20.35,20.35,0,0,1,19.43,15.42c2.31,9.71-2,19.31-10.82,23.44-2.1,1-2.68,2.09-2.6,4.21.48,12.48.92,25,1.21,37.44a4.19,4.19,0,0,0,3,4.42c8.75,3.69,12.15,11.75,11.9,19.33-.33,9.38-5.87,16.12-14.71,18.79-9,2.71-19.2-.87-23.67-8.66-5.25-9.15-3.68-18,2.83-25.53a16.17,16.17,0,0,1,5.86-3.85c1.94-.81,2.25-1.93,2.24-3.74,0-12.5-1.12-25-.75-37.5a4.29,4.29,0,0,0-3.12-4.52c-12.09-4.55-17.09-21.43-6.57-33C285.71,267.66,291.07,265.81,297.67,265.63Z" transform="translate(-161.96 -143.46)"/><path class="cls-1" d="M574.85,362.8V476.6a4,4,0,0,1-4.05,3.92h-17a4,4,0,0,0-4,3.92v16.48a4,4,0,0,1-4,3.92h-17a4,4,0,0,0-4.05,3.93v16.48a4,4,0,0,1-4,3.92H378.1a4,4,0,0,1-4.05-3.92V508.77a4,4,0,0,0-4.05-3.93H353a4,4,0,0,1-4.05-3.92V484.44a4,4,0,0,0-4.05-3.92h-17a4,4,0,0,1-4-3.92V362.8a4,4,0,0,1,4-3.92h17A4,4,0,0,0,349,355V314.15a4,4,0,0,1,4.05-3.92h17a4,4,0,0,0,4.05-3.93V289.82a4,4,0,0,1,4.05-3.92h17a4,4,0,0,0,4-3.92V265.49a4,4,0,0,1,4.05-3.92h92.3a4,4,0,0,1,4.05,3.92V282a4,4,0,0,0,4.05,3.92h17a4,4,0,0,1,4,3.92V306.3a4,4,0,0,0,4.05,3.93h17a4,4,0,0,1,4,3.92V355a4,4,0,0,0,4,3.92h17A4,4,0,0,1,574.85,362.8Z" transform="translate(-161.96 -143.46)"/><path class="cls-4" d="M196.15,666V620h29v7.91h-18.8V639h18v7.92h-18v11.17h18.8V666Z" transform="translate(-161.96 -143.46)"/><path class="cls-4" d="M259.54,666.89a27.33,27.33,0,0,1-10-1.81,25.33,25.33,0,0,1-8.15-5.06,23,23,0,0,1-5.44-7.59A22.76,22.76,0,0,1,234,643a23.14,23.14,0,0,1,1.83-9.15,22.76,22.76,0,0,1,5.29-7.59,25,25,0,0,1,8.32-5.18,29.7,29.7,0,0,1,10.89-1.9,36.85,36.85,0,0,1,6.91.67,35.84,35.84,0,0,1,6.67,2,26.23,26.23,0,0,1,5.75,3.16l-4.81,7a19.89,19.89,0,0,0-6.66-3.5,25.53,25.53,0,0,0-7.7-1.24,17.46,17.46,0,0,0-6.59,1.16,13.94,13.94,0,0,0-4.84,3.23,13.61,13.61,0,0,0-3,4.89,18.28,18.28,0,0,0-1,6.1,18,18,0,0,0,1.13,6.52,14.94,14.94,0,0,0,3.19,5.05,14.27,14.27,0,0,0,4.77,3.26,15.16,15.16,0,0,0,5.87,1.14,16.53,16.53,0,0,0,4.93-.74,14.16,14.16,0,0,0,4.19-2.08,10.68,10.68,0,0,0,2.91-3.14,7.66,7.66,0,0,0,1.08-4V648H259.41v-7h24.15v7a15.24,15.24,0,0,1-2,7.69,19.32,19.32,0,0,1-5.39,6,26.13,26.13,0,0,1-7.71,3.89A29.32,29.32,0,0,1,259.54,666.89Z" transform="translate(-161.96 -143.46)"/><path class="cls-4" d="M315.74,666.89a27.33,27.33,0,0,1-10-1.81,25.33,25.33,0,0,1-8.15-5.06,23.16,23.16,0,0,1-5.44-7.59,23.15,23.15,0,0,1,5.17-26.16,25.06,25.06,0,0,1,8.33-5.18,29.61,29.61,0,0,1,10.88-1.9,37,37,0,0,1,6.92.67,35.51,35.51,0,0,1,6.66,2,26.54,26.54,0,0,1,5.76,3.16L331,632a20.08,20.08,0,0,0-6.66-3.5,25.65,25.65,0,0,0-7.71-1.24,17.41,17.41,0,0,0-6.58,1.16,13.48,13.48,0,0,0-7.84,8.12,18.28,18.28,0,0,0-1,6.1,17.81,17.81,0,0,0,1.14,6.52,15.07,15.07,0,0,0,3.18,5.05,14.21,14.21,0,0,0,4.78,3.26,15.09,15.09,0,0,0,5.87,1.14,16.42,16.42,0,0,0,4.92-.74,14,14,0,0,0,4.19-2.08,10.68,10.68,0,0,0,2.91-3.14,7.66,7.66,0,0,0,1.08-4V648h-13.7v-7h24.14v7a15.23,15.23,0,0,1-2,7.69,19.48,19.48,0,0,1-5.4,6,26.07,26.07,0,0,1-7.7,3.89A29.38,29.38,0,0,1,315.74,666.89Z" transform="translate(-161.96 -143.46)"/><path class="cls-4" d="M362.42,666.89a30.45,30.45,0,0,1-6.68-.69,29.47,29.47,0,0,1-5.49-1.79,29.9,29.9,0,0,1-4.16-2.23,28.31,28.31,0,0,1-2.75-2l5.25-7.47c.7.54,1.53,1.14,2.5,1.81a28.33,28.33,0,0,0,3.26,1.92,20.22,20.22,0,0,0,3.91,1.51,16.61,16.61,0,0,0,4.48.58,11.62,11.62,0,0,0,3.9-.6,5.79,5.79,0,0,0,2.69-1.82,4.64,4.64,0,0,0,1-3,4.77,4.77,0,0,0-.81-2.78,7.35,7.35,0,0,0-2.34-2.11,27.55,27.55,0,0,0-3.76-1.84q-2.24-.9-5.08-2a32.59,32.59,0,0,1-4-1.91,16.55,16.55,0,0,1-3.4-2.49,11.19,11.19,0,0,1-2.36-3.22,9.12,9.12,0,0,1-.87-4,11.2,11.2,0,0,1,1.21-5.08,13.48,13.48,0,0,1,3.43-4.31,16.91,16.91,0,0,1,5.32-3,19.85,19.85,0,0,1,6.85-1.12,25.12,25.12,0,0,1,5.69.67,31,31,0,0,1,5.34,1.76A21.2,21.2,0,0,1,379.7,624l-4.27,7.08a19.86,19.86,0,0,0-3.09-1.84,20.5,20.5,0,0,0-3.67-1.34,15.94,15.94,0,0,0-3.94-.5,9.39,9.39,0,0,0-3.81.7,5.61,5.61,0,0,0-2.39,1.85,4.34,4.34,0,0,0-.83,2.58,3.47,3.47,0,0,0,.54,2,4.81,4.81,0,0,0,1.55,1.44,16,16,0,0,0,2.44,1.16c.95.36,2,.74,3.13,1.15q3.67,1.37,6.65,2.7a25.67,25.67,0,0,1,5.09,3,11.41,11.41,0,0,1,3.25,3.79,11.12,11.12,0,0,1,1.12,5.2,12.16,12.16,0,0,1-2.39,7.55,14.78,14.78,0,0,1-6.66,4.8A27.46,27.46,0,0,1,362.42,666.89Z" transform="translate(-161.96 -143.46)"/><path class="cls-4" d="M414.48,666.89a28.27,28.27,0,0,1-10.26-1.84,26.42,26.42,0,0,1-8.38-5.11,23.88,23.88,0,0,1-5.65-7.61,22.17,22.17,0,0,1,0-18.58,24,24,0,0,1,5.65-7.61,26.61,26.61,0,0,1,8.38-5.11,29.5,29.5,0,0,1,20.51,0,26.65,26.65,0,0,1,8.39,5.11,24.3,24.3,0,0,1,5.65,7.61,22.17,22.17,0,0,1,0,18.58,24.19,24.19,0,0,1-5.65,7.61,26.47,26.47,0,0,1-8.39,5.11A28.22,28.22,0,0,1,414.48,666.89Zm0-8.69a16.28,16.28,0,0,0,6.14-1.12,14.64,14.64,0,0,0,4.85-3.14,14,14,0,0,0,3.2-4.82,17.09,17.09,0,0,0,0-12.17,13.94,13.94,0,0,0-3.2-4.8,14.51,14.51,0,0,0-4.85-3.15,17.31,17.31,0,0,0-12.25,0,14.21,14.21,0,0,0-8,8,16.95,16.95,0,0,0,0,12.17,14.11,14.11,0,0,0,8,8A16.16,16.16,0,0,0,414.48,658.2Z" transform="translate(-161.96 -143.46)"/><path class="cls-4" d="M451.28,666V620H461.5v38.06h18.86V666Z" transform="translate(-161.96 -143.46)"/><path class="cls-4" d="M507.71,666.89q-9.81,0-14.83-4.35t-5-12.87V620h10.22v27.08q0,5.82,2.27,8.37t7.36,2.55q5.12,0,7.37-2.55t2.25-8.37V620h10.25v29.64q0,8.54-5,12.87T507.71,666.89Z" transform="translate(-161.96 -143.46)"/><path class="cls-4" d="M545.24,666V628H532v-8h36.71v8H555.49v38Z" transform="translate(-161.96 -143.46)"/><path class="cls-4" d="M577.11,666V620h10.22v46Z" transform="translate(-161.96 -143.46)"/><path class="cls-4" d="M624.1,666.89a28.18,28.18,0,0,1-10.25-1.84,26.47,26.47,0,0,1-8.39-5.11,23.88,23.88,0,0,1-5.65-7.61,22.17,22.17,0,0,1,0-18.58,24,24,0,0,1,5.65-7.61,26.65,26.65,0,0,1,8.39-5.11,29.47,29.47,0,0,1,20.5,0,26.65,26.65,0,0,1,8.39,5.11,24.15,24.15,0,0,1,5.65,7.61,22.17,22.17,0,0,1,0,18.58,24,24,0,0,1-5.65,7.61,26.47,26.47,0,0,1-8.39,5.11A28.18,28.18,0,0,1,624.1,666.89Zm0-8.69a16.28,16.28,0,0,0,6.14-1.12,14.79,14.79,0,0,0,4.86-3.14,14.14,14.14,0,0,0,3.19-4.82,16.95,16.95,0,0,0,0-12.17,14.06,14.06,0,0,0-3.19-4.8,14.66,14.66,0,0,0-4.86-3.15A17.31,17.31,0,0,0,618,629a14.21,14.21,0,0,0-8,8,17.09,17.09,0,0,0,0,12.17,14.11,14.11,0,0,0,8,8A16.16,16.16,0,0,0,624.1,658.2Z" transform="translate(-161.96 -143.46)"/><path class="cls-4" d="M660.9,666V620h10.23L693.63,651V620h10.25v46H693.63l-22.5-30.9V666Z" transform="translate(-161.96 -143.46)"/></svg>