<svg width="60" height="60" viewBox="0 0 60 60" fill="none" xmlns="http://www.w3.org/2000/svg">
<path d="M60 30C60 46.5685 46.5685 60 30 60C13.4315 60 0 46.5685 0 30C0 13.4315 13.4315 0 30 0C46.5685 0 60 13.4315 60 30Z" fill="#2A2A2A"/>
<mask id="path-2-inside-1_297_120" fill="white">
<path fill-rule="evenodd" clip-rule="evenodd" d="M23.7885 12C22.084 12 20.5435 13.0158 19.8721 14.5824L19.2238 16.095L19.1993 16.1524L19.1795 16.2116L18.9146 17.0064H17.8718H15.4166C14.3472 17.0064 13.3018 17.3229 12.412 17.9161C10.9051 18.9207 10 20.612 10 22.423V42.3526C10 44.1637 10.9051 45.8549 12.412 46.8595C13.3018 47.4527 14.3473 47.7692 15.4166 47.7692H17.8718H42.9038H44.6683C45.1305 47.7692 45.5909 47.7126 46.0392 47.6005C48.5554 46.9714 50.3205 44.7107 50.3205 42.117V22.081C50.3205 21.2932 50.1371 20.5162 49.7848 19.8116C48.9252 18.0924 47.168 17.0064 45.2459 17.0064H42.9038H41.6136C41.5093 16.282 41.2694 15.5812 40.9039 14.9415L40.5582 14.3364C39.7326 12.8916 38.1961 12 36.5321 12H30.1603H23.7885ZM22.6295 15.7642C22.8282 15.3006 23.2841 15 23.7885 15H30.1603H36.5321C37.1195 15 37.662 15.3148 37.9534 15.8249L38.2992 16.4299C38.5442 16.8587 38.6731 17.344 38.6731 17.8379V18.0513C38.6731 19.1311 39.5484 20.0064 40.6282 20.0064H42.9038H45.2459C46.0317 20.0064 46.7501 20.4504 47.1015 21.1532C47.2455 21.4413 47.3205 21.759 47.3205 22.081V42.117C47.3205 43.334 46.4922 44.3949 45.3116 44.69C45.1012 44.7426 44.8852 44.7692 44.6683 44.7692H42.9038H17.8718H15.4166C14.9395 44.7692 14.4731 44.628 14.0761 44.3634C13.4038 43.9152 13 43.1606 13 42.3526V22.423C13 21.615 13.4038 20.8605 14.0761 20.4123C14.4731 20.1476 14.9395 20.0064 15.4166 20.0064H17.8718H19.7559C20.7273 20.0064 21.5276 19.2742 21.6352 18.3315L22.0059 17.2194L22.6295 15.7642ZM29.7051 42.6282C35.4864 42.6282 40.1731 37.9416 40.1731 32.1603C40.1731 26.379 35.4864 21.6923 29.7051 21.6923C23.9238 21.6923 19.2372 26.379 19.2372 32.1603C19.2372 37.9416 23.9238 42.6282 29.7051 42.6282Z"/>
</mask>
<path d="M19.8721 14.5824L22.6295 15.7642L22.6295 15.7642L19.8721 14.5824ZM19.2238 16.095L16.4664 14.9133L16.4664 14.9133L19.2238 16.095ZM19.1993 16.1524L16.4418 14.9707L16.3927 15.0853L16.3532 15.2037L19.1993 16.1524ZM19.1795 16.2116L16.3335 15.2628L16.3335 15.2629L19.1795 16.2116ZM18.9146 17.0064V20.0064H21.0769L21.7606 17.9551L18.9146 17.0064ZM12.412 17.9161L14.0761 20.4123L14.0761 20.4123L12.412 17.9161ZM12.412 46.8595L14.0761 44.3634L14.0761 44.3634L12.412 46.8595ZM46.0392 47.6005L46.7668 50.5109L46.7668 50.5109L46.0392 47.6005ZM49.7848 19.8116L47.1015 21.1532L47.1015 21.1532L49.7848 19.8116ZM41.6136 17.0064L38.6442 17.4337L39.0144 20.0064H41.6136V17.0064ZM40.9039 14.9415L38.2992 16.4299L38.2992 16.4299L40.9039 14.9415ZM40.5582 14.3364L43.1629 12.848L43.1629 12.848L40.5582 14.3364ZM22.6295 15.7642L19.8721 14.5824L19.8721 14.5824L22.6295 15.7642ZM37.9534 15.8249L35.3487 17.3133L35.3487 17.3133L37.9534 15.8249ZM38.2992 16.4299L40.9039 14.9415L40.9039 14.9415L38.2992 16.4299ZM47.1015 21.1532L49.7848 19.8116L49.7848 19.8116L47.1015 21.1532ZM45.3116 44.69L44.584 41.7796L44.5839 41.7796L45.3116 44.69ZM14.0761 44.3634L15.7402 41.8672L15.7402 41.8672L14.0761 44.3634ZM14.0761 20.4123L15.7402 22.9084L15.7402 22.9084L14.0761 20.4123ZM21.6352 18.3315L18.7891 17.3829L18.69 17.6802L18.6545 17.9916L21.6352 18.3315ZM22.0059 17.2194L19.2484 16.0377L19.1993 16.1524L19.1598 16.2708L22.0059 17.2194ZM22.6295 15.7642C22.8282 15.3006 23.2841 15 23.7885 15V9C20.8839 9 18.2588 10.731 17.1147 13.4007L22.6295 15.7642ZM21.9813 17.2768L22.6295 15.7642L17.1147 13.4007L16.4664 14.9133L21.9813 17.2768ZM21.9567 17.3341L21.9813 17.2767L16.4664 14.9133L16.4418 14.9707L21.9567 17.3341ZM22.0256 17.1603L22.0453 17.1011L16.3532 15.2037L16.3335 15.2628L22.0256 17.1603ZM21.7606 17.9551L22.0256 17.1602L16.3335 15.2629L16.0685 16.0577L21.7606 17.9551ZM17.8718 20.0064H18.9146V14.0064H17.8718V20.0064ZM15.4166 20.0064H17.8718V14.0064H15.4166V20.0064ZM14.0761 20.4123C14.4731 20.1476 14.9395 20.0064 15.4166 20.0064V14.0064C13.755 14.0064 12.1305 14.4983 10.7479 15.42L14.0761 20.4123ZM13 22.423C13 21.615 13.4038 20.8605 14.0761 20.4123L10.7479 15.42C8.40643 16.981 7 19.6089 7 22.423H13ZM13 42.3526V22.423H7V42.3526H13ZM14.0761 44.3634C13.4038 43.9152 13 43.1606 13 42.3526H7C7 45.1667 8.40643 47.7947 10.7479 49.3557L14.0761 44.3634ZM15.4166 44.7692C14.9395 44.7692 14.4731 44.628 14.0761 44.3634L10.7479 49.3557C12.1305 50.2774 13.755 50.7692 15.4166 50.7692V44.7692ZM17.8718 44.7692H15.4166V50.7692H17.8718V44.7692ZM42.9038 44.7692H17.8718V50.7692H42.9038V44.7692ZM44.6683 44.7692H42.9038V50.7692H44.6683V44.7692ZM45.3116 44.69C45.1012 44.7426 44.8852 44.7692 44.6683 44.7692V50.7692C45.3757 50.7692 46.0805 50.6825 46.7668 50.5109L45.3116 44.69ZM47.3205 42.117C47.3205 43.334 46.4922 44.3949 45.3116 44.69L46.7668 50.5109C50.6185 49.548 53.3205 46.0873 53.3205 42.117H47.3205ZM47.3205 22.081V42.117H53.3205V22.081H47.3205ZM47.1015 21.1532C47.2455 21.4413 47.3205 21.759 47.3205 22.081H53.3205C53.3205 20.8275 53.0287 19.5912 52.468 18.4699L47.1015 21.1532ZM45.2459 20.0064C46.0317 20.0064 46.7501 20.4504 47.1015 21.1532L52.4681 18.47C51.1003 15.7344 48.3043 14.0064 45.2459 14.0064V20.0064ZM42.9038 20.0064H45.2459V14.0064H42.9038V20.0064ZM41.6136 20.0064H42.9038V14.0064H41.6136V20.0064ZM38.2992 16.4299C38.4769 16.7409 38.5935 17.0815 38.6442 17.4337L44.583 16.5791C44.4252 15.4825 44.062 14.4215 43.5086 13.4531L38.2992 16.4299ZM37.9534 15.8249L38.2992 16.4299L43.5086 13.4531L43.1629 12.848L37.9534 15.8249ZM36.5321 15C37.1195 15 37.662 15.3148 37.9534 15.8249L43.1629 12.848C41.8032 10.4685 39.2727 9 36.5321 9V15ZM30.1603 15H36.5321V9H30.1603V15ZM23.7885 15H30.1603V9H23.7885V15ZM23.7885 12C22.084 12 20.5435 13.0158 19.8721 14.5824L25.387 16.946C25.1129 17.5854 24.4842 18 23.7885 18V12ZM30.1603 12H23.7885V18H30.1603V12ZM36.5321 12H30.1603V18H36.5321V12ZM40.5582 14.3364C39.7326 12.8916 38.1961 12 36.5321 12V18C36.043 18 35.5914 17.7379 35.3487 17.3133L40.5582 14.3364ZM40.9039 14.9415L40.5582 14.3364L35.3487 17.3133L35.6944 17.9183L40.9039 14.9415ZM41.6731 17.8379C41.6731 16.8219 41.4079 15.8236 40.9039 14.9415L35.6944 17.9183C35.6804 17.8938 35.6731 17.8661 35.6731 17.8379H41.6731ZM41.6731 18.0513V17.8379H35.6731V18.0513H41.6731ZM40.6282 17.0064C41.2053 17.0064 41.6731 17.4742 41.6731 18.0513H35.6731C35.6731 20.7879 37.8916 23.0064 40.6282 23.0064V17.0064ZM42.9038 17.0064H40.6282V23.0064H42.9038V17.0064ZM45.2459 17.0064H42.9038V23.0064H45.2459V17.0064ZM49.7848 19.8116C48.9252 18.0924 47.168 17.0064 45.2459 17.0064V23.0064C44.8954 23.0064 44.575 22.8084 44.4182 22.4949L49.7848 19.8116ZM50.3205 22.081C50.3205 21.2932 50.1371 20.5162 49.7848 19.8116L44.4182 22.4949C44.354 22.3664 44.3205 22.2247 44.3205 22.081H50.3205ZM50.3205 42.117V22.081H44.3205V42.117H50.3205ZM46.0392 47.6005C48.5553 46.9714 50.3205 44.7107 50.3205 42.117H44.3205C44.3205 41.9574 44.4291 41.8183 44.584 41.7796L46.0392 47.6005ZM44.6683 47.7692C45.1304 47.7692 45.5909 47.7126 46.0392 47.6005L44.5839 41.7796C44.6116 41.7727 44.6399 41.7692 44.6683 41.7692V47.7692ZM42.9038 47.7692H44.6683V41.7692H42.9038V47.7692ZM17.8718 47.7692H42.9038V41.7692H17.8718V47.7692ZM15.4166 47.7692H17.8718V41.7692H15.4166V47.7692ZM12.412 46.8595C13.3018 47.4527 14.3472 47.7692 15.4166 47.7692V41.7692C15.5318 41.7692 15.6444 41.8033 15.7402 41.8672L12.412 46.8595ZM10 42.3526C10 44.1637 10.9051 45.8549 12.412 46.8595L15.7402 41.8672C15.9025 41.9754 16 42.1575 16 42.3526H10ZM10 22.423V42.3526H16V22.423H10ZM12.412 17.9161C10.9051 18.9207 10 20.612 10 22.423H16C16 22.6181 15.9025 22.8002 15.7402 22.9084L12.412 17.9161ZM15.4166 17.0064C14.3473 17.0064 13.3018 17.3229 12.412 17.9161L15.7402 22.9084C15.6444 22.9723 15.5318 23.0064 15.4166 23.0064V17.0064ZM17.8718 17.0064H15.4166V23.0064H17.8718V17.0064ZM19.7559 17.0064H17.8718V23.0064H19.7559V17.0064ZM18.6545 17.9916C18.7178 17.4361 19.1846 17.0064 19.7559 17.0064V23.0064C22.27 23.0064 24.3375 21.1123 24.6158 18.6715L18.6545 17.9916ZM19.1598 16.2708L18.7891 17.3829L24.4812 19.2802L24.8519 18.1681L19.1598 16.2708ZM19.8721 14.5824L19.2484 16.0377L24.7633 18.4012L25.387 16.946L19.8721 14.5824ZM37.1731 32.1603C37.1731 36.2847 33.8296 39.6282 29.7051 39.6282V45.6282C37.1433 45.6282 43.1731 39.5984 43.1731 32.1603H37.1731ZM29.7051 24.6923C33.8296 24.6923 37.1731 28.0358 37.1731 32.1603H43.1731C43.1731 24.7221 37.1433 18.6923 29.7051 18.6923V24.6923ZM22.2372 32.1603C22.2372 28.0358 25.5807 24.6923 29.7051 24.6923V18.6923C22.267 18.6923 16.2372 24.7221 16.2372 32.1603H22.2372ZM29.7051 39.6282C25.5807 39.6282 22.2372 36.2847 22.2372 32.1603H16.2372C16.2372 39.5984 22.267 45.6282 29.7051 45.6282V39.6282Z" fill="white" mask="url(#path-2-inside-1_297_120)"/>
</svg>
