<svg width="44" height="30" viewBox="0 0 44 30" fill="none" xmlns="http://www.w3.org/2000/svg">
    <ellipse cx="31.8621" cy="20.1081" rx="12.138" ry="6.06901" fill="white"/>
    <circle cx="32.1384" cy="6.53096" r="6.14717" fill="white"/>
    <ellipse cx="12.1375" cy="20.1081" rx="12.138" ry="6.06901" fill="white"/>
    <circle cx="12.4143" cy="6.53096" r="6.14717" fill="white"/>
    <path d="M35.2565 22.7378C35.2565 24.3458 33.94 25.9361 31.5037 27.1542C29.0974 28.3574 25.738 29.116 22.0001 29.116C18.2621 29.116 14.9028 28.3574 12.4964 27.1542C10.0602 25.9361 8.74365 24.3458 8.74365 22.7378C8.74365 21.1299 10.0602 19.5396 12.4964 18.3214C14.9028 17.1182 18.2621 16.3596 22.0001 16.3596C25.738 16.3596 29.0974 17.1182 31.5037 18.3214C33.94 19.5396 35.2565 21.1299 35.2565 22.7378Z" fill="white" stroke="#4863E6"/>
    <circle cx="22.3125" cy="7.35058" r="6.4668" fill="white" stroke="#4863E6"/>
</svg>
