<svg id="Livello_1" data-name="Livello 1" xmlns="http://www.w3.org/2000/svg" viewBox="0 0 144.44 144.59"><defs><style>.cls-1{fill:none;}.cls-1,.cls-2{stroke:#1d1d1b;stroke-miterlimit:10;}.cls-2{fill:#662483;}</style></defs><path class="cls-1" d="M288,297a27,27,0,1,0,27,27A27,27,0,0,0,288,297Zm0,0a27,27,0,1,0,27,27A27,27,0,0,0,288,297Z" transform="translate(-215.59 -287.83)"/><path class="cls-1" d="M287.81,288.33A71.81,71.81,0,0,0,225,394.81c12.81-11.12,33-24.5,58.52-25.83a80.43,80.43,0,0,1,8.39,0c25.6,1.34,45.84,14.79,58.64,25.94a69.9,69.9,0,0,0,3.61-7.5,71.84,71.84,0,0,0-66.35-99.09ZM288,351a27,27,0,1,1,27-27A27,27,0,0,1,288,351Z" transform="translate(-215.59 -287.83)"/><circle class="cls-1" cx="72.41" cy="36.17" r="27"/><path class="cls-2" d="M350.55,394.92A71.7,71.7,0,0,1,225,394.81c12.81-11.12,33-24.5,58.52-25.83a80.43,80.43,0,0,1,8.39,0C317.51,370.32,337.75,383.77,350.55,394.92Z" transform="translate(-215.59 -287.83)"/><path class="cls-1" d="M350.66,395l-.11-.09" transform="translate(-215.59 -287.83)"/><path class="cls-1" d="M225,394.81l-.23.2" transform="translate(-215.59 -287.83)"/><circle class="cls-2" cx="72.41" cy="36.17" r="27"/></svg>