<svg width="38" height="38" viewBox="0 0 38 38" fill="none" xmlns="http://www.w3.org/2000/svg">
<path d="M36.4646 15.5455H32.3825C32.0607 14.2937 31.5631 13.0938 30.9048 11.9815L33.7931 9.09313C34.0809 8.80523 34.2425 8.41486 34.2425 8.00783C34.2425 7.6008 34.0809 7.21043 33.7931 6.92253L31.0775 4.20687C30.7896 3.91915 30.3992 3.75753 29.9922 3.75753C29.5851 3.75753 29.1948 3.91915 28.9069 4.20687L26.0281 7.09525C24.9158 6.43686 23.7159 5.93933 22.4641 5.61747V1.53535C22.4641 1.12815 22.3024 0.737628 22.0144 0.449693C21.7265 0.161759 21.336 0 20.9288 0H17.0808C16.6736 0 16.2831 0.161759 15.9951 0.449693C15.7072 0.737628 15.5455 1.12815 15.5455 1.53535V5.61747C14.2937 5.93933 13.0938 6.43686 11.9815 7.09525L9.10273 4.20687C8.81482 3.91915 8.42446 3.75753 8.01743 3.75753C7.6104 3.75753 7.22003 3.91915 6.93212 4.20687L4.21646 6.92253C3.92874 7.21043 3.76713 7.6008 3.76713 8.00783C3.76713 8.41486 3.92874 8.80523 4.21646 9.09313L7.10101 11.9815C6.44262 13.0938 5.94508 14.2937 5.62323 15.5455H1.53535C1.12815 15.5455 0.737628 15.7072 0.449693 15.9951C0.161759 16.2831 0 16.6736 0 17.0808V20.9192C0 21.3264 0.161759 21.7169 0.449693 22.0049C0.737628 22.2928 1.12815 22.4545 1.53535 22.4545H5.61748C5.93933 23.7063 6.43686 24.9062 7.09525 26.0185L4.20687 28.9069C3.91915 29.1948 3.75753 29.5851 3.75753 29.9922C3.75753 30.3992 3.91915 30.7896 4.20687 31.0775L6.92253 33.7931C7.21043 34.0808 7.6008 34.2425 8.00782 34.2425C8.41485 34.2425 8.80523 34.0808 9.09313 33.7931L11.9719 30.9047C13.0842 31.5631 14.2841 32.0607 15.5359 32.3825V36.4646C15.5359 36.8718 15.6976 37.2624 15.9856 37.5503C16.2735 37.8382 16.664 38 17.0712 38H20.9096C21.3168 38 21.7073 37.8382 21.9953 37.5503C22.2832 37.2624 22.445 36.8718 22.445 36.4646V32.3825C23.6967 32.0607 24.8966 31.5631 26.0089 30.9047L28.8877 33.7931C29.1756 34.0808 29.566 34.2425 29.973 34.2425C30.38 34.2425 30.7704 34.0808 31.0583 33.7931L33.7739 31.0775C34.0617 30.7896 34.2233 30.3992 34.2233 29.9922C34.2233 29.5851 34.0617 29.1948 33.7739 28.9069L30.899 26.0185C31.5574 24.9062 32.0549 23.7063 32.3768 22.4545H36.4646C36.8718 22.4545 37.2624 22.2928 37.5503 22.0049C37.8382 21.7169 38 21.3264 38 20.9192V17.0808C38 16.6736 37.8382 16.2831 37.5503 15.9951C37.2624 15.7072 36.8718 15.5455 36.4646 15.5455ZM27.0414 22.1552C27.003 22.2549 26.9608 22.3471 26.9167 22.4545C26.0436 24.4503 24.4503 26.0436 22.4545 26.9167C22.3547 26.9608 22.2626 27.003 22.1552 27.0414C20.1265 27.8347 17.8735 27.8347 15.8448 27.0414C15.7451 27.003 15.6529 26.9608 15.5455 26.9167C13.5497 26.0436 11.9564 24.4503 11.0833 22.4545C11.0392 22.3547 10.997 22.2626 10.9586 22.1552C10.1653 20.1265 10.1653 17.8735 10.9586 15.8448C10.997 15.7451 11.0392 15.6529 11.0833 15.5455C11.9564 13.5497 13.5497 11.9564 15.5455 11.0833C15.6453 11.0392 15.7374 10.997 15.8448 10.9586C17.8735 10.1653 20.1265 10.1653 22.1552 10.9586C22.2549 10.997 22.3471 11.0392 22.4545 11.0833C24.4503 11.9564 26.0436 13.5497 26.9167 15.5455C26.9608 15.6453 27.003 15.7374 27.0414 15.8448C27.8347 17.8735 27.8347 20.1265 27.0414 22.1552Z" fill="white"/>
</svg>
