<svg id="Livello_1" data-name="Livello 1" xmlns="http://www.w3.org/2000/svg" viewBox="0 0 199 199"><defs><style>.cls-1{fill:#fff;stroke:#000;stroke-miterlimit:10;}</style></defs><circle class="cls-1" cx="99.5" cy="99.5" r="27"/><path class="cls-1" d="M739,342H717.73a71.32,71.32,0,0,0-7.7-18.57l15.05-15.05a8,8,0,0,0,0-11.31l-14.15-14.15a8,8,0,0,0-11.31,0l-15,15.05a71.32,71.32,0,0,0-18.57-7.7V269a8,8,0,0,0-8-8H638a8,8,0,0,0-8,8v21.27a71.32,71.32,0,0,0-18.57,7.7l-15-15.05a8,8,0,0,0-11.31,0l-14.15,14.15a8,8,0,0,0,0,11.31L586,323.43a71.32,71.32,0,0,0-7.7,18.57H557a8,8,0,0,0-8,8v20a8,8,0,0,0,8,8h21.27a71.32,71.32,0,0,0,7.7,18.57l-15.05,15.05a8,8,0,0,0,0,11.31l14.15,14.15a8,8,0,0,0,11.31,0l15-15.05a71.32,71.32,0,0,0,18.57,7.7V451a8,8,0,0,0,8,8h20a8,8,0,0,0,8-8V429.73a71.32,71.32,0,0,0,18.57-7.7l15,15.05a8,8,0,0,0,11.31,0l14.15-14.15a8,8,0,0,0,0-11.31L710,396.57a71.32,71.32,0,0,0,7.7-18.57H739a8,8,0,0,0,8-8V350A8,8,0,0,0,739,342Zm-49.1,34.44c-.2.52-.42,1-.65,1.56A45.11,45.11,0,0,1,666,401.25c-.52.23-1,.45-1.56.65a45.14,45.14,0,0,1-32.88,0c-.52-.2-1-.42-1.56-.65A45.11,45.11,0,0,1,606.75,378c-.23-.52-.45-1-.65-1.56a45.14,45.14,0,0,1,0-32.88c.2-.52.42-1,.65-1.56A45.11,45.11,0,0,1,630,318.75c.52-.23,1-.45,1.56-.65a45.14,45.14,0,0,1,32.88,0c.52.2,1,.42,1.56.65A45.11,45.11,0,0,1,689.25,342c.23.52.45,1,.65,1.56a45.14,45.14,0,0,1,0,32.88Z" transform="translate(-548.5 -260.5)"/><circle class="cls-1" cx="99.5" cy="99.5" r="27"/></svg>