<svg id="Livello_1" data-name="Livello 1" xmlns="http://www.w3.org/2000/svg" viewBox="0 0 306.43 317"><defs><style>.cls-1{fill:#fff;stroke:#1d1d1b;stroke-miterlimit:10;}</style></defs><path class="cls-1" d="M147.19,389.06a8.36,8.36,0,0,1,8.33,8.36v38.25A37.66,37.66,0,0,0,193,473.28h64.29a37.65,37.65,0,0,0,37.47-37.61V240.28a37.65,37.65,0,0,0-37.47-37.61H193a37.66,37.66,0,0,0-37.48,37.61v41.85a8.37,8.37,0,0,1-8.39,8.37l-10.15,0a8.36,8.36,0,0,1-8.34-8.36V230a50,50,0,0,1,49.74-50H271.9a50,50,0,0,1,49.75,50V446a50,50,0,0,1-49.75,50H178.38a50,50,0,0,1-49.74-50V397.39A8.36,8.36,0,0,1,137,389Z" transform="translate(-15.71 -179.48)"/><path class="cls-1" d="M72.65,378a11.24,11.24,0,0,1-6.06-1.72L20.37,346.64a9.07,9.07,0,0,1-3.71-4.32c-1.27-3.49.23-7.11,3.49-9.21l46.44-29.78a11.5,11.5,0,0,1,12.49.25,8.12,8.12,0,0,1,3.57,6.68v9.34c0,.06,0,.1.12.1H232.88c5.59,0,10.12,3.81,10.12,8.52V351.4c0,4.7-4.53,8.51-10.12,8.51H82.77a.11.11,0,0,0-.12.1v9.23a8.51,8.51,0,0,1-4.84,7.55A11.47,11.47,0,0,1,72.65,378Z" transform="translate(-15.71 -179.48)"/></svg>