<svg width="58" height="52" viewBox="0 0 58 52" fill="none" xmlns="http://www.w3.org/2000/svg">
<g clip-path="url(#clip0_779_636)">
<path d="M6.35742 9.08528V6.84381C6.35742 4.20674 8.29871 2.06897 10.6934 2.06897H35.3489C37.7436 2.06897 39.6849 4.20674 39.6849 6.84381V48.0001" stroke="black" stroke-width="4" stroke-miterlimit="10" stroke-linecap="round"/>
<path d="M39.4998 48.3794H10.6934C8.2987 48.3794 6.35742 46.2416 6.35742 43.6045V27.7955" stroke="black" stroke-width="4" stroke-miterlimit="10" stroke-linecap="round"/>
<path d="M25.7716 11.4242H3.30824C1.48115 11.4242 0 13.0553 0 15.0673V21.4539C0 23.4659 1.48115 25.097 3.30824 25.097H25.7716C27.5987 25.097 29.0798 23.4659 29.0798 21.4539V15.0673C29.0798 13.0553 27.5987 11.4242 25.7716 11.4242Z" fill="#E30613"/>
<path d="M2.83789 23.2086V12.9323H6.63067C7.251 12.9323 7.81345 13.0485 8.31759 13.2809C8.82173 13.5135 9.22313 13.8686 9.52178 14.3459C9.82023 14.8234 9.96965 15.4317 9.96965 16.1708C9.96965 16.9057 9.82023 17.5233 9.52178 18.0237C9.22313 18.5241 8.82173 18.9028 8.31759 19.1603C7.81345 19.4178 7.251 19.5464 6.63067 19.5464H5.39733V23.2086H2.83789ZM5.39733 17.379H5.79301C6.02174 17.379 6.24965 17.352 6.47655 17.2982C6.70344 17.244 6.89242 17.1372 7.04368 16.9774C7.19495 16.8175 7.27058 16.5778 7.27058 16.2579C7.27058 15.9341 7.19495 15.6901 7.04368 15.5262C6.89242 15.3621 6.70344 15.2521 6.47655 15.196C6.24965 15.1401 6.02174 15.1121 5.79301 15.1121H5.39733V17.379Z" fill="white"/>
<path d="M11.2607 23.2086V12.9323H14.2159C14.8984 12.9323 15.5324 13.0629 16.1181 13.3244C16.7035 13.5862 17.2164 13.9514 17.6566 14.4206C18.0967 14.8898 18.44 15.4369 18.6863 16.0619C18.9325 16.6866 19.0557 17.3603 19.0557 18.0828C19.0557 18.8052 18.9335 19.478 18.6891 20.1007C18.4449 20.7234 18.1026 21.2676 17.6625 21.7325C17.2224 22.1975 16.7084 22.5598 16.1209 22.8193C15.5334 23.0788 14.8984 23.2086 14.2159 23.2086H11.2607L11.2607 23.2086ZM13.8202 20.7546H13.9133C14.2623 20.7546 14.5814 20.6893 14.8702 20.5584C15.1591 20.4278 15.4092 20.243 15.6206 20.0042C15.832 19.7655 15.996 19.482 16.1121 19.154C16.2286 18.826 16.2867 18.4648 16.2867 18.0704C16.2867 17.68 16.2286 17.3208 16.1121 16.9928C15.996 16.6649 15.832 16.3804 15.6206 16.1396C15.4092 15.8989 15.1591 15.713 14.8702 15.5821C14.5814 15.4515 14.2623 15.3859 13.9133 15.3859H13.8202V20.7546Z" fill="white"/>
<path d="M20.5332 23.2086V12.9323H26.2806V15.3361H22.5691L23.0926 14.7758V17.4165L22.5691 16.8559H26.0245V19.26H22.5691L23.0926 18.6994V23.2086H20.5332Z" fill="white"/>
</g>
<defs>
<clipPath id="clip0_779_636">
<rect width="58" height="52" fill="white"/>
</clipPath>
</defs>
</svg>
