<svg width="58" height="52" viewBox="0 0 58 52" fill="none" xmlns="http://www.w3.org/2000/svg">
<g clip-path="url(#clip0_779_651)">
<path d="M6.35742 9.08516V6.84369C6.35742 4.20662 8.29871 2.06885 10.6934 2.06885H35.3489C37.7436 2.06885 39.6849 3.36293 39.6849 6V16" stroke="black" stroke-width="4" stroke-miterlimit="10" stroke-linecap="round"/>
<path d="M23.4998 48.3793C15.5062 48.3793 19.9935 48.3793 11.9998 48.3793C9.60512 48.3793 6.35742 46.2415 6.35742 43.6044V27.7954" stroke="black" stroke-width="4" stroke-miterlimit="10" stroke-linecap="round"/>
<path d="M25.7716 11.4241H3.30824C1.48115 11.4241 0 13.0551 0 15.0672V21.4538C0 23.4658 1.48115 25.0969 3.30824 25.0969H25.7716C27.5987 25.0969 29.0798 23.4658 29.0798 21.4538V15.0672C29.0798 13.0551 27.5987 11.4241 25.7716 11.4241Z" fill="#E30613"/>
<path d="M2.83789 23.2084V12.9321H6.63067C7.251 12.9321 7.81345 13.0484 8.31759 13.2808C8.82173 13.5133 9.22313 13.8685 9.52178 14.3458C9.82023 14.8232 9.96965 15.4316 9.96965 16.1706C9.96965 16.9056 9.82023 17.5232 9.52178 18.0236C9.22313 18.524 8.82173 18.9027 8.31759 19.1602C7.81345 19.4177 7.251 19.5463 6.63067 19.5463H5.39733V23.2084H2.83789ZM5.39733 17.3788H5.79301C6.02174 17.3788 6.24965 17.3519 6.47655 17.298C6.70344 17.2439 6.89242 17.1371 7.04368 16.9772C7.19495 16.8174 7.27058 16.5776 7.27058 16.2577C7.27058 15.934 7.19495 15.69 7.04368 15.5261C6.89242 15.362 6.70344 15.252 6.47655 15.1959C6.24965 15.14 6.02174 15.1119 5.79301 15.1119H5.39733V17.3788Z" fill="white"/>
<path d="M11.2607 23.2084V12.9321H14.2159C14.8984 12.9321 15.5324 13.0628 16.1181 13.3243C16.7035 13.5861 17.2164 13.9513 17.6566 14.4205C18.0967 14.8897 18.44 15.4368 18.6863 16.0618C18.9325 16.6865 19.0557 17.3602 19.0557 18.0826C19.0557 18.805 18.9335 19.4778 18.6891 20.1006C18.4449 20.7233 18.1026 21.2675 17.6625 21.7324C17.2224 22.1973 16.7084 22.5597 16.1209 22.8192C15.5334 23.0787 14.8984 23.2084 14.2159 23.2084H11.2607L11.2607 23.2084ZM13.8202 20.7545H13.9133C14.2623 20.7545 14.5814 20.6892 14.8702 20.5583C15.1591 20.4277 15.4092 20.2429 15.6206 20.004C15.832 19.7654 15.996 19.4819 16.1121 19.1539C16.2286 18.8259 16.2867 18.4647 16.2867 18.0703C16.2867 17.6799 16.2286 17.3207 16.1121 16.9927C15.996 16.6647 15.832 16.3803 15.6206 16.1394C15.4092 15.8988 15.1591 15.7129 14.8702 15.582C14.5814 15.4514 14.2623 15.3858 13.9133 15.3858H13.8202V20.7545Z" fill="white"/>
<path d="M20.5332 23.2084V12.9321H26.2806V15.336H22.5691L23.0926 14.7757V17.4163L22.5691 16.8558H26.0245V19.2599H22.5691L23.0926 18.6993V23.2084H20.5332Z" fill="white"/>
<path d="M29 36.5112V44.7557C29 45.308 29.4477 45.7557 30 45.7557H48.9388C49.4911 45.7557 49.9388 45.308 49.9388 44.7557V36.5112" stroke="#2D2D2D" stroke-width="3" stroke-miterlimit="10" stroke-linecap="round"/>
<path d="M39.4287 21V34.8667" stroke="#2D2D2D" stroke-width="3" stroke-miterlimit="10" stroke-linecap="round"/>
<path d="M39.6819 41.6753L44.0419 35.2408C44.1545 35.0745 44.0137 34.8667 43.7884 34.8667H35.0685C34.8432 34.8667 34.7024 35.0745 34.815 35.2408L39.175 41.6753C39.2876 41.8416 39.5693 41.8416 39.6819 41.6753Z" stroke="#2D2D2D" stroke-width="3" stroke-miterlimit="10"/>
</g>
<defs>
<clipPath id="clip0_779_651">
<rect width="58" height="52" fill="white"/>
</clipPath>
</defs>
</svg>
